<svg width="1065" height="644" viewBox="0 0 1065 644" fill="none" xmlns="http://www.w3.org/2000/svg">
<path d="M369 291.5C369 281.283 377.283 273 387.5 273H450.5C460.717 273 469 281.283 469 291.5C469 301.717 460.717 310 450.5 310H387.5C377.283 310 369 301.717 369 291.5Z" fill="#4F4F4F"/>
<path d="M386 188.5C386 178.283 394.283 170 404.5 170H501.5C511.717 170 520 178.283 520 188.5C520 198.717 511.717 207 501.5 207H404.5C394.283 207 386 198.717 386 188.5Z" fill="#4F4F4F"/>
<path d="M306 240C306 229.507 314.507 221 325 221H474C484.493 221 493 229.507 493 240C493 250.493 484.493 259 474 259H325C314.507 259 306 250.493 306 240Z" fill="#4F4F4F"/>
<path d="M493 562.5C493 552.835 500.835 545 510.5 545H646.5C656.165 545 664 552.835 664 562.5C664 572.165 656.165 580 646.5 580H510.5C500.835 580 493 572.165 493 562.5Z" fill="#4F4F4F"/>
<circle cx="825" cy="271" r="373" fill="#4F4F4F"/>
<ellipse cx="341" cy="291.5" rx="19" ry="18.5" fill="#4F4F4F"/>
<ellipse cx="19" cy="52.5" rx="19" ry="18.5" fill="#4F4F4F"/>
<ellipse cx="65" cy="52.5" rx="19" ry="18.5" fill="#4F4F4F"/>
<path d="M192 472.5C192 462.835 199.835 455 209.5 455H342.5C352.165 455 360 462.835 360 472.5C360 482.165 352.165 490 342.5 490H209.5C199.835 490 192 482.165 192 472.5Z" fill="#4F4F4F"/>
<path d="M92 51.5C92 41.835 99.835 34 109.5 34H242.5C252.165 34 260 41.835 260 51.5C260 61.165 252.165 69 242.5 69H109.5C99.835 69 92 61.165 92 51.5Z" fill="#4F4F4F"/>
</svg>
