<svg width="321" height="531" viewBox="0 0 321 531" fill="none" xmlns="http://www.w3.org/2000/svg">
<path d="M30.7334 364.044C30.7334 359.136 34.7126 355.157 39.6211 355.157H69.8875C74.7961 355.157 78.7752 359.136 78.7752 364.044C78.7752 368.953 74.7961 372.932 69.8875 372.932H39.6211C34.7126 372.932 30.7334 368.953 30.7334 364.044Z" fill="#4F4F4F"/>
<path d="M38.9004 314.562C38.9004 309.653 42.8796 305.674 47.7881 305.674H94.3887C99.2973 305.674 103.276 309.653 103.276 314.562C103.276 319.47 99.2973 323.449 94.3887 323.449H47.7881C42.8796 323.449 38.9004 319.47 38.9004 314.562Z" fill="#4F4F4F"/>
<path d="M0.466797 339.303C0.466797 334.262 4.55352 330.175 9.59474 330.175H81.1771C86.2183 330.175 90.305 334.262 90.305 339.303C90.305 344.344 86.2183 348.431 81.1771 348.431H9.59475C4.55353 348.431 0.466797 344.344 0.466797 339.303Z" fill="#4F4F4F"/>
<path d="M90.3052 494.238C90.3052 489.595 94.0693 485.831 98.7125 485.831H164.049C168.693 485.831 172.457 489.595 172.457 494.238C172.457 498.881 168.693 502.645 164.049 502.645H98.7125C94.0693 502.645 90.3052 498.881 90.3052 494.238Z" fill="#4F4F4F"/>
<circle cx="249.804" cy="354.196" r="179.196" fill="#4F4F4F"/>
<ellipse cx="17.2813" cy="364.044" rx="9.12795" ry="8.88774" fill="#4F4F4F"/>
<path d="M337.615 8.5C337.615 13.1944 333.81 17 329.115 17L251.5 17C246.805 17 243 13.1944 243 8.50001C243 3.80559 246.805 7.93885e-06 251.5 7.52845e-06L329.115 7.43093e-07C333.81 3.32694e-07 337.615 3.80558 337.615 8.5Z" fill="#4F4F4F"/>
</svg>
