<svg width="48" height="48" viewBox="0 0 48 48" fill="none" xmlns="http://www.w3.org/2000/svg">
<g clip-path="url(#clip0_17_63)">
<path d="M24 43.6781C30.4125 43.6781 31.1719 43.65 33.6938 43.5375C36.0375 43.4344 37.3031 43.0406 38.1469 42.7125C39.2625 42.2812 40.0688 41.7562 40.9031 40.9219C41.7469 40.0781 42.2625 39.2812 42.6938 38.1656C43.0219 37.3219 43.4156 36.0469 43.5188 33.7125C43.6313 31.1813 43.6594 30.4219 43.6594 24.0187C43.6594 17.6062 43.6313 16.8469 43.5188 14.325C43.4156 11.9812 43.0219 10.7156 42.6938 9.87187C42.2625 8.75625 41.7375 7.95 40.9031 7.11562C40.0594 6.27187 39.2625 5.75625 38.1469 5.325C37.3031 4.99687 36.0281 4.60313 33.6938 4.5C31.1625 4.3875 30.4031 4.35938 24 4.35938C17.5875 4.35938 16.8281 4.3875 14.3063 4.5C11.9625 4.60313 10.6969 4.99687 9.85313 5.325C8.7375 5.75625 7.93125 6.28125 7.09688 7.11562C6.25313 7.95937 5.7375 8.75625 5.30625 9.87187C4.97813 10.7156 4.58438 11.9906 4.48125 14.325C4.36875 16.8562 4.34063 17.6156 4.34063 24.0187C4.34063 30.4312 4.36875 31.1906 4.48125 33.7125C4.58438 36.0563 4.97813 37.3219 5.30625 38.1656C5.7375 39.2812 6.2625 40.0875 7.09688 40.9219C7.94063 41.7656 8.7375 42.2812 9.85313 42.7125C10.6969 43.0406 11.9719 43.4344 14.3063 43.5375C16.8281 43.65 17.5875 43.6781 24 43.6781ZM24 48C17.4844 48 16.6688 47.9719 14.1094 47.8594C11.5594 47.7469 9.80625 47.3344 8.2875 46.7438C6.70312 46.125 5.3625 45.3094 4.03125 43.9688C2.69063 42.6375 1.875 41.2969 1.25625 39.7219C0.665625 38.1937 0.253125 36.45 0.140625 33.9C0.028125 31.3313 0 30.5156 0 24C0 17.4844 0.028125 16.6688 0.140625 14.1094C0.253125 11.5594 0.665625 9.80625 1.25625 8.2875C1.875 6.70312 2.69063 5.3625 4.03125 4.03125C5.3625 2.7 6.70313 1.875 8.27813 1.26562C9.80625 0.674999 11.55 0.262501 14.1 0.150002C16.6594 0.0375023 17.475 0.00937653 23.9906 0.00937653C30.5063 0.00937653 31.3219 0.0375023 33.8813 0.150002C36.4313 0.262501 38.1844 0.674999 39.7031 1.26562C41.2781 1.875 42.6188 2.7 43.95 4.03125C45.2812 5.3625 46.1063 6.70312 46.7156 8.27812C47.3063 9.80625 47.7188 11.55 47.8313 14.1C47.9438 16.6594 47.9719 17.475 47.9719 23.9906C47.9719 30.5062 47.9438 31.3219 47.8313 33.8812C47.7188 36.4312 47.3063 38.1844 46.7156 39.7031C46.125 41.2969 45.3094 42.6375 43.9688 43.9688C42.6375 45.3 41.2969 46.125 39.7219 46.7344C38.1938 47.325 36.45 47.7375 33.9 47.85C31.3313 47.9719 30.5156 48 24 48Z" fill="white"/>
<path d="M24 36.3281C17.1938 36.3281 11.6719 30.8062 11.6719 24C11.6719 17.1938 17.1938 11.6719 24 11.6719C30.8062 11.6719 36.3281 17.1938 36.3281 24C36.3281 30.8062 30.8062 36.3281 24 36.3281ZM24 16.0031C19.5844 16.0031 16.0031 19.5844 16.0031 24C16.0031 28.4156 19.5844 31.9969 24 31.9969C28.4156 31.9969 31.9969 28.4156 31.9969 24C31.9969 19.5844 28.4156 16.0031 24 16.0031Z" fill="white"/>
<path d="M39.6937 36.8157C39.6937 35.222 38.4 33.9376 36.8156 33.9376C35.2219 33.9376 33.9375 35.2313 33.9375 36.8157C33.9375 38.4095 35.2313 39.6938 36.8156 39.6938C38.4 39.6938 39.6937 38.4001 39.6937 36.8157Z" fill="white"/>
</g>
<defs>
<clipPath id="clip0_17_63">
<rect width="48" height="48" fill="white" transform="matrix(1 0 0 -1 0 48)"/>
</clipPath>
</defs>
</svg>
