<svg width="132" height="21" viewBox="0 0 132 21" fill="none" xmlns="http://www.w3.org/2000/svg">
<path d="M10.6847 1.38772C10.9958 0.491854 12.2628 0.491854 12.5739 1.38772L14.4558 6.80575C14.5955 7.20799 14.9746 7.47765 15.4004 7.47765H21.3407C22.3255 7.47765 22.7173 8.75113 21.9029 9.3047L17.2143 12.4914C16.8402 12.7456 16.6834 13.2193 16.8318 13.6465L18.6493 18.8793C18.9652 19.789 17.939 20.5758 17.1425 20.0345L12.1914 16.6694C11.8521 16.4388 11.4065 16.4388 11.0672 16.6694L6.11611 20.0345C5.31965 20.5758 4.29338 19.789 4.60935 18.8793L6.42684 13.6465C6.57523 13.2193 6.41838 12.7456 6.04432 12.4914L1.35575 9.3047C0.541279 8.75113 0.933086 7.47765 1.91788 7.47765H7.85819C8.28401 7.47765 8.66312 7.20799 8.80283 6.80575L10.6847 1.38772Z" fill="white"/>
<path d="M37.9405 1.38772C38.2517 0.491854 39.5186 0.491854 39.8298 1.38772L41.7116 6.80575C41.8513 7.20799 42.2305 7.47765 42.6563 7.47765H48.5966C49.5814 7.47765 49.9732 8.75113 49.1587 9.3047L44.4701 12.4914C44.0961 12.7456 43.9392 13.2193 44.0876 13.6465L45.9051 18.8793C46.2211 19.789 45.1948 20.5758 44.3983 20.0345L39.4473 16.6694C39.108 16.4388 38.6623 16.4388 38.323 16.6694L33.372 20.0345C32.5755 20.5758 31.5492 19.789 31.8652 18.8793L33.6827 13.6465C33.8311 13.2193 33.6742 12.7456 33.3002 12.4914L28.6116 9.3047C27.7971 8.75113 28.1889 7.47765 29.1737 7.47765H35.114C35.5399 7.47765 35.919 7.20799 36.0587 6.80575L37.9405 1.38772Z" fill="white"/>
<path d="M65.1984 1.38772C65.5095 0.491854 66.7765 0.491854 67.0877 1.38772L68.9695 6.80575C69.1092 7.20799 69.4883 7.47765 69.9141 7.47765H75.8545C76.8392 7.47765 77.2311 8.75113 76.4166 9.3047L71.728 12.4914C71.3539 12.7456 71.1971 13.2193 71.3455 13.6465L73.163 18.8793C73.479 19.789 72.4527 20.5758 71.6562 20.0345L66.7052 16.6694C66.3659 16.4388 65.9202 16.4388 65.5809 16.6694L60.6298 20.0345C59.8334 20.5758 58.8071 19.789 59.1231 18.8793L60.9406 13.6465C61.089 13.2193 60.9321 12.7456 60.558 12.4914L55.8695 9.3047C55.055 8.75113 55.4468 7.47765 56.4316 7.47765H62.3719C62.7977 7.47765 63.1768 7.20799 63.3166 6.80575L65.1984 1.38772Z" fill="white"/>
<path d="M92.4561 1.38772C92.7673 0.491854 94.0343 0.491854 94.3454 1.38772L96.2273 6.80575C96.367 7.20799 96.7461 7.47765 97.1719 7.47765H103.112C104.097 7.47765 104.489 8.75113 103.674 9.3047L98.9858 12.4914C98.6117 12.7456 98.4549 13.2193 98.6032 13.6465L100.421 18.8793C100.737 19.789 99.7104 20.5758 98.914 20.0345L93.9629 16.6694C93.6236 16.4388 93.1779 16.4388 92.8387 16.6694L87.8876 20.0345C87.0911 20.5758 86.0649 19.789 86.3808 18.8793L88.1983 13.6465C88.3467 13.2193 88.1899 12.7456 87.8158 12.4914L83.1272 9.3047C82.3128 8.75113 82.7046 7.47765 83.6894 7.47765H89.6297C90.0555 7.47765 90.4346 7.20799 90.5743 6.80575L92.4561 1.38772Z" fill="white"/>
<path d="M119.714 1.38772C120.025 0.491854 121.292 0.491854 121.603 1.38772L123.485 6.80575C123.625 7.20799 124.004 7.47765 124.43 7.47765H130.37C131.355 7.47765 131.747 8.75113 130.932 9.3047L126.244 12.4914C125.87 12.7456 125.713 13.2193 125.861 13.6465L127.679 18.8793C127.995 19.789 126.968 20.5758 126.172 20.0345L121.221 16.6694C120.881 16.4388 120.436 16.4388 120.096 16.6694L115.145 20.0345C114.349 20.5758 113.323 19.789 113.639 18.8793L115.456 13.6465C115.605 13.2193 115.448 12.7456 115.074 12.4914L110.385 9.3047C109.571 8.75113 109.962 7.47765 110.947 7.47765H116.887C117.313 7.47765 117.692 7.20799 117.832 6.80575L119.714 1.38772Z" fill="white"/>
</svg>
